<svg id="Group_3434" data-name="Group 3434" xmlns="http://www.w3.org/2000/svg" width="66.65" height="71.41" viewBox="0 0 66.65 71.41">
  <path id="Path_3400" data-name="Path 3400" d="M15.19,19.38H30.46a1.19,1.19,0,1,0,0-2.38H15.19a1.19,1.19,0,1,0,0,2.38Z" transform="translate(0.283 3.232)" fill="#462400"/>
  <path id="Path_3401" data-name="Path 3401" d="M15.19,26.38h7.47a1.19,1.19,0,1,0,0-2.38H15.19a1.19,1.19,0,1,0,0,2.38Z" transform="translate(0.283 4.564)" fill="#462400"/>
  <path id="Path_3402" data-name="Path 3402" d="M26.19,26.38H37.56a1.19,1.19,0,1,0,0-2.38H26.19a1.19,1.19,0,1,0,0,2.38Z" transform="translate(1.715 4.564)" fill="#462400"/>
  <path id="Path_3403" data-name="Path 3403" d="M14,32.19a1.189,1.189,0,0,0,1.19,1.19H29.6a1.19,1.19,0,1,0,0-2.38H15.19A1.189,1.189,0,0,0,14,32.19Z" transform="translate(0.484 5.895)" fill="#462400"/>
  <path id="Path_3404" data-name="Path 3404" d="M21.7,37.16c-2.606,1.357-3.484,3.953-3.8,6.644q-.739-.619-1.477-1.238c-1.166-.977-2.859.7-1.683,1.684l3.34,2.8a1.207,1.207,0,0,0,2.032-.841c.087-2.578.208-5.644,2.795-6.99C24.263,38.508,23.06,36.452,21.7,37.16Z" transform="translate(0.346 7.039)" fill="#462400"/>
  <path id="Path_3405" data-name="Path 3405" d="M28.273,41.2c-1.648.382-3.524,2.479-4.685.126-.677-1.373-2.731-.169-2.055,1.2a4.123,4.123,0,0,0,3.177,2.3,3.975,3.975,0,0,0,2.009-.269c.487-.189,2.305-1.557,2.7-.853.747,1.338,2.8.139,2.055-1.2A2.829,2.829,0,0,0,28.273,41.2Z" transform="translate(1.689 7.744)" fill="#462400"/>
  <path id="Path_3406" data-name="Path 3406" d="M65.1,0H60.3a3.546,3.546,0,0,0-3.338,2.38H37.705V1.19A1.189,1.189,0,0,0,36.515,0H25.8a1.189,1.189,0,0,0-1.19,1.19V2.38H2V71.41H60.318V66.073l1.19,2.083V70.22a1.19,1.19,0,1,0,2.38,0V68.156l4.761-8.331V3.553A3.557,3.557,0,0,0,65.1,0ZM59.128,10.711h7.141v2.38H59.128ZM35.325,2.38v3.57H26.994V2.38ZM24.613,4.761v3.57H37.705V4.761h5.951V9.521H18.662V4.761ZM17.472,11.9H46.036v-1.19h5.951V63.079H10.331V10.711h5.951V11.9ZM57.938,69.03H4.38V4.761h11.9v3.57H7.951V65.459H54.368V8.331H46.036V4.761H56.748V59.825l1.19,2.083ZM59.989,60.7h5.42L62.7,65.44l-2.38-4.166Zm6.281-2.38H59.128V15.472h7.141ZM59.128,8.331V3.553A1.174,1.174,0,0,1,60.3,2.38h4.8a1.174,1.174,0,0,1,1.174,1.172V8.331Z" transform="translate(-2 0)" fill="#462400"/>
</svg>
