<svg id="Group_3429" data-name="Group 3429" xmlns="http://www.w3.org/2000/svg" width="70.882" height="56.216" viewBox="0 0 70.882 56.216">
  <path id="Path_3386" data-name="Path 3386" d="M39.321,29.745,25.878,21.191A1.222,1.222,0,0,0,24,22.222V39.331a1.223,1.223,0,0,0,1.878,1.031l13.443-8.555a1.223,1.223,0,0,0,0-2.063ZM26.444,37.106V24.447l9.944,6.329Z" transform="translate(5.331 -2.668)" fill="#462400"/>
  <path id="Path_3387" data-name="Path 3387" d="M69.66,6H1.222A1.222,1.222,0,0,0,0,7.222V60.994a1.222,1.222,0,0,0,1.222,1.222H69.66a1.222,1.222,0,0,0,1.222-1.222V7.222A1.222,1.222,0,0,0,69.66,6ZM12.221,32.886H2.444v-11h9.777ZM2.444,35.33h9.777v11H2.444ZM14.665,47.551V8.444H56.217V59.772H14.665ZM68.438,32.886H58.661v-11h9.777ZM58.661,35.33h9.777v11H58.661ZM68.438,8.444v11H58.661v-11Zm-65.993,0h9.777v11H2.444Zm0,51.328v-11h9.777v11Zm65.993,0H58.661v-11h9.777Z" transform="translate(0 -6)" fill="#462400"/>
</svg>
