<svg id="Group_3430" data-name="Group 3430" xmlns="http://www.w3.org/2000/svg" width="67.44" height="65.332" viewBox="0 0 67.44 65.332">
  <g id="Group_1934" data-name="Group 1934" transform="translate(0 0)">
    <path id="Path_2998" data-name="Path 2998" d="M63.5,56.173l-.527,2.04a3.161,3.161,0,0,1,2.36,3.056V99.2a3.161,3.161,0,0,1-3.161,3.161h-17.6a1.054,1.054,0,0,0-.663.238l-11.245,9.14v-8.325a1.054,1.054,0,0,0-1.054-1.054H5.269A3.161,3.161,0,0,1,2.108,99.2V61.269a3.161,3.161,0,0,1,3.161-3.161H6.323V56H5.269A5.275,5.275,0,0,0,0,61.269V99.2a5.275,5.275,0,0,0,5.269,5.269h25.29v9.484a1.054,1.054,0,0,0,1.719.818l12.672-10.3H62.172A5.275,5.275,0,0,0,67.44,99.2V61.269A5.269,5.269,0,0,0,63.5,56.173Z" transform="translate(0 -49.678)" fill="#462400"/>
    <path id="Path_2999" data-name="Path 2999" d="M69.269,45.935h13.7V51.2a1.054,1.054,0,0,0,.65.974,1.04,1.04,0,0,0,.4.08,1.054,1.054,0,0,0,.745-.309l6.021-6.014h20.631a5.275,5.275,0,0,0,5.269-5.269v-27.4A5.275,5.275,0,0,0,111.419,8H69.269A5.275,5.275,0,0,0,64,13.269v27.4A5.275,5.275,0,0,0,69.269,45.935ZM66.108,13.269a3.161,3.161,0,0,1,3.161-3.161h42.15a3.161,3.161,0,0,1,3.161,3.161v27.4a3.161,3.161,0,0,1-3.161,3.161H90.351a1.054,1.054,0,0,0-.745.3l-4.531,4.531V44.881a1.054,1.054,0,0,0-1.054-1.054H69.269a3.161,3.161,0,0,1-3.161-3.161Z" transform="translate(-55.57 -8)" fill="#462400"/>
    <rect id="Rectangle_2067" data-name="Rectangle 2067" width="31.613" height="2.107" transform="translate(15.806 7.376)" fill="#462400"/>
    <rect id="Rectangle_2068" data-name="Rectangle 2068" width="37.935" height="2.107" transform="translate(15.806 14.752)" fill="#462400"/>
    <rect id="Rectangle_2069" data-name="Rectangle 2069" width="37.935" height="2.107" transform="translate(15.806 22.129)" fill="#462400"/>
    <rect id="Rectangle_2070" data-name="Rectangle 2070" width="29.505" height="2.107" transform="translate(15.806 29.505)" fill="#462400"/>
  </g>
</svg>
